<svg class="svg-icon" transform="rotate(180)" style="width: 1em; height: 1em;vertical-align: middle;fill: #16181b;overflow: hidden;" viewBox="0 0 1024 1024" version="1.1" xmlns="http://www.w3.org/2000/svg"><path d="M424.55 740.147c13.414 13.363 35.098 13.363 48.41 0l205.645-205.338c6.682-6.733 10.061-15.565 10.061-24.346s-3.405-17.562-10.138-24.294l-205.593-205.517c-13.286-13.338-34.995-13.338-48.41 0-13.414 13.466-13.414 35.098 0 48.59l181.35 181.248-181.35 181.222c-13.338 13.389-13.338 35.072 0.026 48.435l0 0zM510.362 970.778c254.235 0 460.314-206.08 460.314-460.365 0-254.054-206.08-460.262-460.314-460.262-254.182 0-460.39 206.208-460.39 460.261 0.077 254.285 206.285 460.365 460.39 460.365l0 0zM514.638 101.325c225.894 0 408.986 183.091 408.986 409.088 0 226.022-183.014 409.037-408.986 409.037-226.202 0-409.292-182.963-409.293-409.037 0-226.048 183.091-409.088 409.293-409.088l0 0zM514.638 107.443z"  /></svg>