<svg width="359" height="102" viewBox="0 0 359 102" fill="none" xmlns="http://www.w3.org/2000/svg">
<rect y="7.74292" width="217.114" height="43.7143" rx="21.8571" fill="#02643F"/>
<path d="M24.7002 32.6426C24.7002 32.6312 24.6945 32.6198 24.6831 32.6084C24.6831 32.597 24.6831 32.5856 24.6831 32.5742C24.6831 32.3805 24.7856 32.2837 24.9907 32.2837C25.0933 32.2837 25.2072 32.335 25.3325 32.4375C25.9478 33.0186 26.6313 33.48 27.3833 33.8218C28.1353 34.1636 28.9556 34.3345 29.8442 34.3345C30.0835 34.3345 30.3569 34.3117 30.6646 34.2661C30.9722 34.2091 31.2627 34.1237 31.5361 34.0098C31.8096 33.8844 32.0374 33.7249 32.2197 33.5312C32.4134 33.3376 32.5103 33.0926 32.5103 32.7964C32.5103 32.466 32.4305 32.1698 32.271 31.9077C32.1115 31.6457 31.9007 31.4235 31.6387 31.2412C31.5361 31.1729 31.3823 31.0589 31.1772 30.8994C30.9722 30.7399 30.7386 30.5576 30.4766 30.3525C30.2145 30.1475 29.9411 29.931 29.6562 29.7031C29.3714 29.4639 29.098 29.2417 28.8359 29.0366C28.5853 28.8201 28.3574 28.6265 28.1523 28.4556C27.9473 28.2847 27.7935 28.1536 27.6909 28.0625C27.0187 27.5612 26.4832 27.0542 26.0845 26.5415C25.6971 26.0288 25.4009 25.4933 25.1958 24.9351C24.9907 24.3768 24.8597 23.8014 24.8027 23.209C24.7458 22.6051 24.7173 21.9671 24.7173 21.2949C24.7173 20.2923 24.9565 19.341 25.4351 18.4409C25.9136 17.5409 26.5858 16.7604 27.4517 16.0996C28.3289 15.4274 29.3771 14.8976 30.5962 14.5103C31.8153 14.1115 33.1711 13.9121 34.6636 13.9121C34.8459 13.9121 35.1193 13.9349 35.4839 13.9805C35.8485 14.0146 36.2472 14.0773 36.6802 14.1685C37.1245 14.2596 37.5745 14.3849 38.0303 14.5444C38.486 14.7039 38.9019 14.909 39.2778 15.1597C39.4032 15.2508 39.5 15.342 39.5684 15.4331C39.6481 15.5243 39.6994 15.6667 39.7222 15.8604C39.7791 16.7832 39.8247 17.6947 39.8589 18.5947C39.8931 19.4834 39.9386 20.429 39.9956 21.4316C39.9956 21.6253 39.9557 21.7563 39.876 21.8247C39.7962 21.8817 39.6937 21.9102 39.5684 21.9102C39.443 21.9102 39.3462 21.876 39.2778 21.8076C38.9474 21.4772 38.6056 21.1525 38.2524 20.8335C37.8993 20.5145 37.529 20.2354 37.1416 19.9961C36.7542 19.7454 36.3384 19.5461 35.894 19.3979C35.4611 19.2498 34.9883 19.1758 34.4756 19.1758C34.168 19.1758 33.8604 19.2043 33.5527 19.2612C33.2451 19.3068 32.966 19.3979 32.7153 19.5347C32.4647 19.6714 32.2596 19.8594 32.1001 20.0986C31.952 20.3379 31.8779 20.6398 31.8779 21.0044C31.8779 21.3918 31.9235 21.7279 32.0146 22.0127C32.1172 22.2975 32.3621 22.5653 32.7495 22.8159L36.8511 25.6016C37.603 26.137 38.2126 26.6725 38.6797 27.208C39.1468 27.7321 39.5114 28.2562 39.7734 28.7803C40.0355 29.3044 40.2121 29.8228 40.3032 30.3354C40.4058 30.8368 40.457 31.3324 40.457 31.8223C40.457 32.6198 40.326 33.3717 40.064 34.0781C39.8019 34.7845 39.443 35.4396 38.9873 36.0435C38.5316 36.6359 37.9961 37.1714 37.3809 37.6499C36.777 38.117 36.1276 38.5215 35.4326 38.8633C34.7376 39.1937 34.0142 39.4443 33.2622 39.6152C32.5216 39.7975 31.7925 39.8887 31.0747 39.8887C30.5164 39.8887 29.9639 39.8773 29.417 39.8545C28.8815 39.8431 28.3574 39.7975 27.8447 39.7178C27.332 39.6494 26.8364 39.5355 26.3579 39.376C25.8794 39.2279 25.4237 39.0171 24.9907 38.7437L24.7002 32.6426ZM60.7427 36.8809C60.7085 37.2568 60.6629 37.5189 60.606 37.667C60.549 37.8037 60.4237 37.8949 60.23 37.9404C59.2616 38.2139 58.2476 38.493 57.188 38.7778C56.1398 39.0513 55.1201 39.4159 54.1289 39.8716C54.0947 39.883 54.0435 39.8887 53.9751 39.8887C53.884 39.8887 53.827 39.8659 53.8042 39.8203C53.7928 39.7747 53.7871 39.7235 53.7871 39.6665C53.7871 39.6437 53.7871 39.6038 53.7871 39.5469C53.7985 39.4899 53.8156 39.3817 53.8384 39.2222C53.8612 39.0741 53.8896 38.8633 53.9238 38.5898C53.9694 38.3164 54.0264 37.9518 54.0947 37.4961C52.8187 38.3278 51.6851 38.9316 50.6938 39.3076C49.714 39.695 48.8424 39.8887 48.0791 39.8887C46.1764 39.8887 44.7865 39.4329 43.9092 38.5215C43.0433 37.5986 42.6104 36.2257 42.6104 34.4028C42.6104 34.0724 42.616 33.7363 42.6274 33.3945C42.6388 33.0413 42.673 32.6825 42.73 32.3179C42.8553 30.9735 42.9635 29.8228 43.0547 28.8657C43.1458 27.8973 43.2199 27.077 43.2769 26.4048C43.3338 25.7326 43.3794 25.1857 43.4136 24.7642C43.4591 24.3312 43.4933 23.9723 43.5161 23.6875C43.5503 23.4027 43.5731 23.1691 43.5845 22.9868C43.6073 22.7931 43.63 22.6051 43.6528 22.4229C43.6984 22.0583 43.7383 21.8019 43.7725 21.6538C43.818 21.5057 43.9491 21.4089 44.1655 21.3633C44.701 21.2607 45.208 21.1696 45.6865 21.0898C46.1764 20.9987 46.6549 20.9076 47.1221 20.8164C47.6006 20.7139 48.0848 20.6056 48.5747 20.4917C49.0646 20.3778 49.583 20.241 50.1299 20.0815C50.1527 20.0815 50.1755 20.0815 50.1982 20.0815C50.221 20.0701 50.2438 20.0645 50.2666 20.0645C50.4033 20.0645 50.4717 20.11 50.4717 20.2012V20.2354C50.4261 20.6227 50.3862 20.9873 50.3521 21.3291C50.3179 21.6709 50.2837 22.0241 50.2495 22.3887C50.2153 22.7419 50.1755 23.1235 50.1299 23.5337C50.0957 23.9438 50.0501 24.4224 49.9932 24.9692C49.9362 25.5047 49.8678 26.1257 49.7881 26.832C49.7083 27.5384 49.6115 28.3587 49.4976 29.293C49.4292 29.9766 49.3608 30.6602 49.2925 31.3438C49.2241 32.016 49.1899 32.6426 49.1899 33.2236C49.1899 33.5426 49.2127 33.8389 49.2583 34.1123C49.3039 34.3743 49.3836 34.6022 49.4976 34.7959C49.6229 34.9782 49.7824 35.1206 49.9761 35.2231C50.1698 35.3257 50.4204 35.377 50.728 35.377C50.9673 35.377 51.292 35.3257 51.7021 35.2231C52.1123 35.1092 52.5225 34.9212 52.9326 34.6592C53.3428 34.3857 53.7017 34.0326 54.0093 33.5996C54.3283 33.1553 54.5106 32.597 54.5562 31.9248C54.6359 30.7969 54.7043 29.8569 54.7612 29.105C54.8296 28.3416 54.8866 27.7036 54.9321 27.1909C54.9777 26.6668 55.0176 26.2282 55.0518 25.875C55.0859 25.5218 55.1144 25.1857 55.1372 24.8667C55.1714 24.5363 55.1999 24.1888 55.2227 23.8242C55.2454 23.4482 55.2682 22.9811 55.291 22.4229C55.3252 22.0469 55.3651 21.7905 55.4106 21.6538C55.4676 21.5057 55.5986 21.4089 55.8037 21.3633C56.8405 21.1582 57.9001 20.9531 58.9824 20.748C60.0648 20.5316 61.1243 20.2581 62.1611 19.9277C62.2523 19.9277 62.3035 19.9448 62.3149 19.979C62.3377 20.0018 62.3491 20.0417 62.3491 20.0986L60.7427 36.8809ZM72.1929 27.0713C72.1245 28.165 72.0618 29.0537 72.0049 29.7373C71.9593 30.4209 71.9194 30.9792 71.8853 31.4121C71.8511 31.8337 71.8226 32.1698 71.7998 32.4204C71.777 32.6597 71.7599 32.8875 71.7485 33.104C72.0106 33.7876 72.3979 34.3459 72.9106 34.7788C73.4233 35.2004 74.0386 35.4111 74.7563 35.4111C75.383 35.4111 75.9299 35.2174 76.397 34.8301C76.8755 34.4313 77.2686 33.9186 77.5762 33.292C77.8952 32.6654 78.1344 31.9647 78.2939 31.1899C78.4535 30.4152 78.5332 29.6462 78.5332 28.8828C78.5332 28.2562 78.4762 27.6751 78.3623 27.1396C78.2598 26.6042 78.1003 26.1427 77.8838 25.7554C77.6673 25.3566 77.3939 25.049 77.0635 24.8325C76.7445 24.6047 76.3628 24.4907 75.9185 24.4907C75.5539 24.4907 75.1893 24.5648 74.8247 24.7129C74.4715 24.8496 74.1297 25.0319 73.7993 25.2598C73.4689 25.4762 73.167 25.7269 72.8936 26.0117C72.6315 26.2852 72.415 26.5529 72.2441 26.8149L72.1929 27.0713ZM72.5347 22.064C73.4917 21.4146 74.4943 20.8962 75.5425 20.5088C76.5907 20.1214 77.6844 19.9277 78.8237 19.9277C79.8947 19.9277 80.8175 20.1499 81.5923 20.5942C82.3784 21.0272 83.0278 21.6196 83.5405 22.3716C84.0532 23.1121 84.4292 23.9666 84.6685 24.9351C84.9191 25.9035 85.0444 26.9175 85.0444 27.9771C85.0444 28.8999 84.9533 29.8341 84.771 30.7798C84.5887 31.7254 84.321 32.6426 83.9678 33.5312C83.6146 34.4085 83.1759 35.2345 82.6519 36.0093C82.1278 36.784 81.5239 37.4619 80.8403 38.043C80.1681 38.6126 79.4162 39.0627 78.5845 39.3931C77.7528 39.7235 76.8527 39.8887 75.8843 39.8887C75.0298 39.8887 74.2095 39.7178 73.4233 39.376C72.6486 39.0342 71.9194 38.5898 71.2358 38.043C71.2358 38.0999 71.2188 38.3107 71.1846 38.6753C71.1618 39.0285 71.1276 39.4614 71.082 39.9741C71.0365 40.4868 70.9852 41.0337 70.9282 41.6147C70.8713 42.2072 70.82 42.7598 70.7744 43.2725C70.7288 43.7852 70.689 44.2181 70.6548 44.5713C70.632 44.9359 70.6206 45.1466 70.6206 45.2036C70.6206 45.2948 70.6206 45.3688 70.6206 45.4258C70.632 45.4941 70.6377 45.5568 70.6377 45.6138C70.6377 45.7049 70.5921 45.779 70.501 45.8359C70.4212 45.9043 70.2332 45.9784 69.937 46.0581L65.4424 47.2031C65.3171 47.2373 65.1519 47.2886 64.9468 47.3569C64.7417 47.4367 64.5423 47.4766 64.3486 47.4766C64.1891 47.4766 64.0467 47.4367 63.9214 47.3569C63.8075 47.2772 63.7505 47.1291 63.7505 46.9126L65.8354 21.8931C65.8696 21.5171 65.9095 21.2607 65.9551 21.124C66.012 20.9759 66.1431 20.8791 66.3481 20.8335C67.3849 20.6284 68.4502 20.4233 69.5439 20.2183C70.6377 20.0018 71.703 19.7284 72.7397 19.3979C72.8309 19.3979 72.8822 19.415 72.8936 19.4492C72.9163 19.472 72.9277 19.5119 72.9277 19.5688C72.9277 19.5916 72.922 19.6258 72.9106 19.6714C72.9106 19.717 72.8936 19.8195 72.8594 19.979C72.8366 20.1385 72.7967 20.3835 72.7397 20.7139C72.6942 21.0329 72.6258 21.4829 72.5347 22.064ZM97.4004 19.9277C98.4827 19.9277 99.4626 20.1328 100.34 20.543C101.229 20.9417 101.986 21.4658 102.613 22.1152C103.251 22.7533 103.741 23.471 104.083 24.2686C104.424 25.0661 104.595 25.8636 104.595 26.6611C104.595 27.3675 104.379 28.0796 103.946 28.7974C103.513 29.5037 102.903 30.1418 102.117 30.7114C101.342 31.2811 100.408 31.7425 99.3145 32.0957C98.2207 32.4489 97.0187 32.6255 95.7085 32.6255C95.0249 32.6255 94.3071 32.5571 93.5552 32.4204C93.6007 32.9103 93.7432 33.3319 93.9824 33.6851C94.2217 34.0382 94.5236 34.3288 94.8882 34.5566C95.2528 34.7845 95.6629 34.9554 96.1187 35.0693C96.5858 35.1719 97.0643 35.2231 97.5542 35.2231C98.1011 35.2231 98.6252 35.1776 99.1265 35.0864C99.6392 34.9839 100.129 34.8529 100.596 34.6934C101.063 34.5339 101.513 34.3573 101.946 34.1636C102.379 33.9699 102.789 33.7762 103.177 33.5825C103.279 33.5597 103.365 33.5426 103.433 33.5312C103.513 33.5085 103.587 33.4971 103.655 33.4971C103.655 33.4971 103.65 33.5882 103.638 33.7705C103.638 33.9528 103.638 34.2091 103.638 34.5396C103.638 34.87 103.632 35.2687 103.621 35.7358C103.621 36.203 103.615 36.7214 103.604 37.291C103.638 37.348 103.661 37.4049 103.672 37.4619C103.684 37.5189 103.689 37.5645 103.689 37.5986C103.689 37.7354 103.564 37.8835 103.313 38.043C103.063 38.2025 102.732 38.3677 102.322 38.5386C101.924 38.7095 101.462 38.8747 100.938 39.0342C100.425 39.1937 99.9012 39.3361 99.3657 39.4614C98.8302 39.5981 98.3118 39.7007 97.8105 39.769C97.3092 39.8488 96.8706 39.8887 96.4946 39.8887C95.2642 39.8887 94.0679 39.6722 92.9058 39.2393C91.755 38.8177 90.7297 38.2082 89.8296 37.4106C88.9409 36.6131 88.2288 35.6447 87.6934 34.5054C87.1579 33.366 86.8901 32.0843 86.8901 30.6602C86.8901 29.1676 87.1465 27.772 87.6592 26.4731C88.1719 25.1629 88.8896 24.0236 89.8125 23.0552C90.7467 22.0868 91.8576 21.3234 93.145 20.7651C94.4325 20.2069 95.8509 19.9277 97.4004 19.9277ZM97.1953 24.4736C96.7282 24.4736 96.2952 24.5762 95.8965 24.7812C95.5091 24.9749 95.1502 25.2598 94.8198 25.6357C94.5008 26.0003 94.2217 26.4447 93.9824 26.9688C93.7432 27.4814 93.5495 28.0511 93.4014 28.6777C94.5749 28.4727 95.549 28.2562 96.3237 28.0283C97.0985 27.8005 97.7194 27.5726 98.1865 27.3447C98.6536 27.1055 98.984 26.8719 99.1777 26.644C99.3714 26.4048 99.4683 26.1769 99.4683 25.9604C99.4683 25.7554 99.3885 25.5617 99.229 25.3794C99.0809 25.1971 98.8929 25.0376 98.665 24.9009C98.4372 24.7642 98.1865 24.6616 97.9131 24.5933C97.651 24.5135 97.4118 24.4736 97.1953 24.4736ZM120.711 25.0889C120.472 25.0661 120.204 25.0433 119.908 25.0205C119.611 24.9863 119.298 24.9692 118.968 24.9692C118.466 24.9692 117.954 25.0148 117.43 25.106C116.917 25.1857 116.438 25.3509 115.994 25.6016C115.55 25.8522 115.168 26.1997 114.849 26.644C114.53 27.077 114.325 27.641 114.234 28.3359C114.154 29.179 114.086 29.874 114.029 30.4209C113.983 30.9564 113.949 31.4007 113.926 31.7539C113.903 32.0957 113.881 32.3748 113.858 32.5913C113.847 32.7964 113.835 32.9901 113.824 33.1724C113.824 33.2179 113.812 33.3433 113.79 33.5483C113.778 33.7534 113.755 33.9927 113.721 34.2661C113.687 34.5396 113.653 34.8358 113.619 35.1548C113.596 35.4738 113.567 35.77 113.533 36.0435C113.499 36.3169 113.471 36.5562 113.448 36.7612C113.436 36.9663 113.431 37.0916 113.431 37.1372C113.431 37.2284 113.431 37.3081 113.431 37.3765C113.442 37.4334 113.448 37.4904 113.448 37.5474C113.448 37.6385 113.402 37.7183 113.311 37.7866C113.231 37.8436 113.043 37.9119 112.747 37.9917L108.218 39.6152C108.093 39.6608 107.928 39.7178 107.723 39.7861C107.518 39.8545 107.318 39.8887 107.125 39.8887C106.965 39.8887 106.823 39.8488 106.697 39.769C106.583 39.6893 106.526 39.5526 106.526 39.3589L107.996 22.4229C108.03 22.0469 108.07 21.7905 108.116 21.6538C108.173 21.5057 108.304 21.4089 108.509 21.3633C109.546 21.1582 110.617 20.9531 111.722 20.748C112.827 20.5316 113.898 20.2581 114.935 19.9277C115.026 19.9277 115.077 19.9448 115.088 19.979C115.111 20.0018 115.123 20.0417 115.123 20.0986C115.123 20.1214 115.117 20.1556 115.105 20.2012C115.105 20.2467 115.088 20.3493 115.054 20.5088C115.031 20.6683 114.992 20.9132 114.935 21.2437C114.889 21.5627 114.821 22.0127 114.729 22.5938C115.254 22.1836 115.829 21.8076 116.456 21.4658C117.094 21.124 117.732 20.8335 118.37 20.5942C119.008 20.3436 119.623 20.1499 120.215 20.0132C120.808 19.8651 121.326 19.791 121.771 19.791L120.711 25.0889Z" fill="#C7FF57"/>
<path d="M122.83 32.6426C122.83 32.6312 122.824 32.6198 122.813 32.6084C122.813 32.597 122.813 32.5856 122.813 32.5742C122.813 32.3805 122.916 32.2837 123.121 32.2837C123.223 32.2837 123.337 32.335 123.462 32.4375C124.078 33.0186 124.761 33.48 125.513 33.8218C126.265 34.1636 127.085 34.3345 127.974 34.3345C128.213 34.3345 128.487 34.3117 128.794 34.2661C129.102 34.2091 129.393 34.1237 129.666 34.0098C129.939 33.8844 130.167 33.7249 130.35 33.5312C130.543 33.3376 130.64 33.0926 130.64 32.7964C130.64 32.466 130.56 32.1698 130.401 31.9077C130.241 31.6457 130.031 31.4235 129.769 31.2412C129.666 31.1729 129.512 31.0589 129.307 30.8994C129.102 30.7399 128.868 30.5576 128.606 30.3525C128.344 30.1475 128.071 29.931 127.786 29.7031C127.501 29.4639 127.228 29.2417 126.966 29.0366C126.715 28.8201 126.487 28.6265 126.282 28.4556C126.077 28.2847 125.923 28.1536 125.821 28.0625C125.149 27.5612 124.613 27.0542 124.214 26.5415C123.827 26.0288 123.531 25.4933 123.326 24.9351C123.121 24.3768 122.99 23.8014 122.933 23.209C122.876 22.6051 122.847 21.9671 122.847 21.2949C122.847 20.2923 123.086 19.341 123.565 18.4409C124.043 17.5409 124.716 16.7604 125.582 16.0996C126.459 15.4274 127.507 14.8976 128.726 14.5103C129.945 14.1115 131.301 13.9121 132.793 13.9121C132.976 13.9121 133.249 13.9349 133.614 13.9805C133.978 14.0146 134.377 14.0773 134.81 14.1685C135.254 14.2596 135.704 14.3849 136.16 14.5444C136.616 14.7039 137.032 14.909 137.408 15.1597C137.533 15.2508 137.63 15.342 137.698 15.4331C137.778 15.5243 137.829 15.6667 137.852 15.8604C137.909 16.7832 137.955 17.6947 137.989 18.5947C138.023 19.4834 138.069 20.429 138.125 21.4316C138.125 21.6253 138.086 21.7563 138.006 21.8247C137.926 21.8817 137.824 21.9102 137.698 21.9102C137.573 21.9102 137.476 21.876 137.408 21.8076C137.077 21.4772 136.736 21.1525 136.382 20.8335C136.029 20.5145 135.659 20.2354 135.271 19.9961C134.884 19.7454 134.468 19.5461 134.024 19.3979C133.591 19.2498 133.118 19.1758 132.605 19.1758C132.298 19.1758 131.99 19.2043 131.683 19.2612C131.375 19.3068 131.096 19.3979 130.845 19.5347C130.595 19.6714 130.389 19.8594 130.23 20.0986C130.082 20.3379 130.008 20.6398 130.008 21.0044C130.008 21.3918 130.053 21.7279 130.145 22.0127C130.247 22.2975 130.492 22.5653 130.879 22.8159L134.981 25.6016C135.733 26.137 136.342 26.6725 136.81 27.208C137.277 27.7321 137.641 28.2562 137.903 28.7803C138.165 29.3044 138.342 29.8228 138.433 30.3354C138.536 30.8368 138.587 31.3324 138.587 31.8223C138.587 32.6198 138.456 33.3717 138.194 34.0781C137.932 34.7845 137.573 35.4396 137.117 36.0435C136.661 36.6359 136.126 37.1714 135.511 37.6499C134.907 38.117 134.257 38.5215 133.562 38.8633C132.868 39.1937 132.144 39.4443 131.392 39.6152C130.652 39.7975 129.922 39.8887 129.205 39.8887C128.646 39.8887 128.094 39.8773 127.547 39.8545C127.011 39.8431 126.487 39.7975 125.975 39.7178C125.462 39.6494 124.966 39.5355 124.488 39.376C124.009 39.2279 123.554 39.0171 123.121 38.7437L122.83 32.6426ZM158.873 36.8809C158.838 37.2568 158.793 37.5189 158.736 37.667C158.679 37.8037 158.554 37.8949 158.36 37.9404C157.391 38.2139 156.377 38.493 155.318 38.7778C154.27 39.0513 153.25 39.4159 152.259 39.8716C152.225 39.883 152.173 39.8887 152.105 39.8887C152.014 39.8887 151.957 39.8659 151.934 39.8203C151.923 39.7747 151.917 39.7235 151.917 39.6665C151.917 39.6437 151.917 39.6038 151.917 39.5469C151.928 39.4899 151.945 39.3817 151.968 39.2222C151.991 39.0741 152.02 38.8633 152.054 38.5898C152.099 38.3164 152.156 37.9518 152.225 37.4961C150.949 38.3278 149.815 38.9316 148.824 39.3076C147.844 39.695 146.972 39.8887 146.209 39.8887C144.306 39.8887 142.916 39.4329 142.039 38.5215C141.173 37.5986 140.74 36.2257 140.74 34.4028C140.74 34.0724 140.746 33.7363 140.757 33.3945C140.769 33.0413 140.803 32.6825 140.86 32.3179C140.985 30.9735 141.093 29.8228 141.185 28.8657C141.276 27.8973 141.35 27.077 141.407 26.4048C141.464 25.7326 141.509 25.1857 141.543 24.7642C141.589 24.3312 141.623 23.9723 141.646 23.6875C141.68 23.4027 141.703 23.1691 141.714 22.9868C141.737 22.7931 141.76 22.6051 141.783 22.4229C141.828 22.0583 141.868 21.8019 141.902 21.6538C141.948 21.5057 142.079 21.4089 142.295 21.3633C142.831 21.2607 143.338 21.1696 143.816 21.0898C144.306 20.9987 144.785 20.9076 145.252 20.8164C145.73 20.7139 146.215 20.6056 146.705 20.4917C147.194 20.3778 147.713 20.241 148.26 20.0815C148.283 20.0815 148.305 20.0815 148.328 20.0815C148.351 20.0701 148.374 20.0645 148.396 20.0645C148.533 20.0645 148.602 20.11 148.602 20.2012V20.2354C148.556 20.6227 148.516 20.9873 148.482 21.3291C148.448 21.6709 148.414 22.0241 148.379 22.3887C148.345 22.7419 148.305 23.1235 148.26 23.5337C148.226 23.9438 148.18 24.4224 148.123 24.9692C148.066 25.5047 147.998 26.1257 147.918 26.832C147.838 27.5384 147.741 28.3587 147.627 29.293C147.559 29.9766 147.491 30.6602 147.422 31.3438C147.354 32.016 147.32 32.6426 147.32 33.2236C147.32 33.5426 147.343 33.8389 147.388 34.1123C147.434 34.3743 147.514 34.6022 147.627 34.7959C147.753 34.9782 147.912 35.1206 148.106 35.2231C148.3 35.3257 148.55 35.377 148.858 35.377C149.097 35.377 149.422 35.3257 149.832 35.2231C150.242 35.1092 150.652 34.9212 151.062 34.6592C151.473 34.3857 151.832 34.0326 152.139 33.5996C152.458 33.1553 152.64 32.597 152.686 31.9248C152.766 30.7969 152.834 29.8569 152.891 29.105C152.959 28.3416 153.016 27.7036 153.062 27.1909C153.108 26.6668 153.147 26.2282 153.182 25.875C153.216 25.5218 153.244 25.1857 153.267 24.8667C153.301 24.5363 153.33 24.1888 153.353 23.8242C153.375 23.4482 153.398 22.9811 153.421 22.4229C153.455 22.0469 153.495 21.7905 153.541 21.6538C153.597 21.5057 153.729 21.4089 153.934 21.3633C154.97 21.1582 156.03 20.9531 157.112 20.748C158.195 20.5316 159.254 20.2581 160.291 19.9277C160.382 19.9277 160.433 19.9448 160.445 19.979C160.468 20.0018 160.479 20.0417 160.479 20.0986L158.873 36.8809ZM169.896 33.4287C170.009 33.6566 170.169 33.8901 170.374 34.1294C170.59 34.3573 170.835 34.568 171.109 34.7617C171.394 34.9554 171.701 35.1149 172.032 35.2402C172.362 35.3542 172.704 35.4111 173.057 35.4111C173.547 35.4111 174.008 35.2231 174.441 34.8472C174.874 34.4598 175.25 33.9471 175.569 33.3091C175.9 32.6597 176.156 31.9248 176.338 31.1045C176.521 30.2728 176.612 29.4126 176.612 28.5239C176.612 27.9771 176.561 27.4587 176.458 26.9688C176.367 26.4788 176.219 26.0516 176.014 25.687C175.809 25.3224 175.541 25.0319 175.21 24.8154C174.891 24.599 174.504 24.4907 174.048 24.4907C173.308 24.4907 172.63 24.7072 172.015 25.1401C171.399 25.5731 170.881 26.1257 170.459 26.7979L169.896 33.4287ZM163.538 39.8374C163.379 39.8716 163.253 39.8887 163.162 39.8887C162.798 39.8887 162.615 39.6722 162.615 39.2393C162.615 39.1823 162.615 39.1253 162.615 39.0684C162.627 39.0114 162.638 38.9487 162.649 38.8804L164.632 14.6982C164.632 14.6641 164.632 14.6299 164.632 14.5957C164.643 14.5615 164.649 14.533 164.649 14.5103C164.649 14.4647 164.643 14.4248 164.632 14.3906C164.632 14.3564 164.632 14.328 164.632 14.3052C164.632 14.2026 164.666 14.1229 164.734 14.0659C164.814 13.9976 165.008 13.9235 165.315 13.8438L170.118 12.6987C170.243 12.6759 170.408 12.6247 170.613 12.5449C170.818 12.4652 171.018 12.4253 171.211 12.4253C171.36 12.4253 171.496 12.4595 171.622 12.5278C171.758 12.5962 171.827 12.7272 171.827 12.9209C171.827 12.9437 171.821 12.9665 171.81 12.9893C171.81 13.012 171.81 13.0348 171.81 13.0576C171.798 13.1146 171.77 13.3652 171.724 13.8096C171.679 14.2539 171.627 14.7951 171.57 15.4331C171.513 16.0597 171.451 16.7376 171.382 17.4668C171.314 18.1846 171.251 18.8625 171.194 19.5005C171.137 20.1271 171.086 20.6626 171.041 21.1069C170.995 21.5513 170.966 21.8019 170.955 21.8589C171.787 21.312 172.647 20.8563 173.536 20.4917C174.424 20.1157 175.313 19.9277 176.202 19.9277C177.375 19.9277 178.389 20.1727 179.244 20.6626C180.098 21.1411 180.805 21.7848 181.363 22.5938C181.921 23.3913 182.331 24.3141 182.593 25.3623C182.867 26.4105 183.003 27.4928 183.003 28.6094C183.003 29.5094 182.918 30.4152 182.747 31.3267C182.588 32.2267 182.348 33.0926 182.029 33.9243C181.722 34.756 181.329 35.5365 180.85 36.2656C180.383 36.9948 179.842 37.6271 179.227 38.1626C178.623 38.6981 177.945 39.1196 177.193 39.4272C176.441 39.7349 175.626 39.8887 174.749 39.8887C173.689 39.8887 172.721 39.6551 171.844 39.188C170.966 38.7209 170.152 38.117 169.4 37.3765C169.377 37.6499 169.36 37.8664 169.349 38.0259C169.337 38.1854 169.297 38.3107 169.229 38.4019C169.172 38.4816 169.081 38.55 168.956 38.6069C168.83 38.6525 168.642 38.7038 168.392 38.7607C168.266 38.7949 168.044 38.8519 167.725 38.9316C167.417 39 167.042 39.0798 166.597 39.1709C166.164 39.2734 165.68 39.3817 165.145 39.4956C164.62 39.6095 164.085 39.7235 163.538 39.8374ZM185.328 34.2832C185.328 34.2718 185.322 34.2661 185.311 34.2661C185.311 34.2547 185.311 34.2433 185.311 34.2319C185.311 34.0838 185.39 34.0098 185.55 34.0098C185.652 34.0098 185.743 34.0496 185.823 34.1294C186.279 34.5623 186.797 34.9155 187.378 35.189C187.971 35.4624 188.609 35.5991 189.292 35.5991C189.475 35.5991 189.686 35.582 189.925 35.5479C190.164 35.5023 190.392 35.4339 190.608 35.3428C190.825 35.2516 191.001 35.132 191.138 34.9839C191.286 34.8244 191.36 34.6307 191.36 34.4028C191.36 34.1522 191.298 33.9243 191.172 33.7192C191.047 33.5028 190.882 33.3262 190.677 33.1895C190.563 33.1097 190.363 32.973 190.079 32.7793C189.794 32.5742 189.486 32.3577 189.156 32.1299C188.837 31.902 188.529 31.6855 188.233 31.4805C187.948 31.2754 187.749 31.1273 187.635 31.0361C187.122 30.6488 186.712 30.2557 186.404 29.8569C186.108 29.4582 185.88 29.048 185.721 28.6265C185.561 28.1935 185.459 27.7435 185.413 27.2764C185.368 26.8092 185.345 26.3136 185.345 25.7896C185.345 24.992 185.556 24.2401 185.977 23.5337C186.399 22.8273 186.951 22.2064 187.635 21.6709C188.33 21.1354 189.116 20.7139 189.993 20.4062C190.87 20.0872 191.765 19.9277 192.676 19.9277C193.428 19.9277 194.169 20.0417 194.898 20.2695C195.627 20.4974 196.305 20.8848 196.932 21.4316C196.989 22.1494 197.028 22.8558 197.051 23.5508C197.074 24.2458 197.108 24.9749 197.154 25.7383C197.154 25.8864 197.12 25.9889 197.051 26.0459C196.983 26.0915 196.903 26.1143 196.812 26.1143C196.732 26.1143 196.664 26.0858 196.607 26.0288C196.345 25.7782 196.077 25.5332 195.804 25.2939C195.53 25.0433 195.24 24.8268 194.932 24.6445C194.636 24.4508 194.317 24.297 193.975 24.1831C193.633 24.0578 193.269 23.9951 192.881 23.9951C192.642 23.9951 192.403 24.0179 192.164 24.0635C191.924 24.0977 191.708 24.1717 191.514 24.2856C191.32 24.3882 191.161 24.5306 191.036 24.7129C190.922 24.8952 190.865 25.1287 190.865 25.4136C190.865 25.744 190.905 26.0288 190.984 26.2681C191.064 26.5073 191.252 26.7409 191.548 26.9688L194.727 29.1221C195.308 29.5208 195.775 29.9139 196.128 30.3013C196.493 30.6772 196.778 31.0532 196.983 31.4292C197.188 31.8052 197.325 32.1812 197.393 32.5571C197.473 32.9217 197.513 33.2863 197.513 33.6509C197.513 34.6763 197.273 35.582 196.795 36.3682C196.328 37.1429 195.718 37.7923 194.966 38.3164C194.214 38.8291 193.36 39.2165 192.403 39.4785C191.457 39.752 190.506 39.8887 189.549 39.8887C188.82 39.8887 188.113 39.8089 187.43 39.6494C186.757 39.5013 186.131 39.2677 185.55 38.9487L185.328 34.2832Z" fill="#E4290D"/>
</svg>
