<svg width="293" height="89" viewBox="0 0 293 89" fill="none" xmlns="http://www.w3.org/2000/svg">
<path d="M3.08594 36.7344C3.08594 36.7214 3.07943 36.7083 3.06641 36.6953C3.06641 36.6823 3.06641 36.6693 3.06641 36.6562C3.06641 36.4349 3.18359 36.3242 3.41797 36.3242C3.53516 36.3242 3.66536 36.3828 3.80859 36.5C4.51172 37.1641 5.29297 37.6914 6.15234 38.082C7.01172 38.4727 7.94922 38.668 8.96484 38.668C9.23828 38.668 9.55078 38.6419 9.90234 38.5898C10.2539 38.5247 10.5859 38.4271 10.8984 38.2969C11.2109 38.1536 11.4714 37.9714 11.6797 37.75C11.901 37.5286 12.0117 37.2487 12.0117 36.9102C12.0117 36.5326 11.9206 36.194 11.7383 35.8945C11.556 35.5951 11.3151 35.3411 11.0156 35.1328C10.8984 35.0547 10.7227 34.9245 10.4883 34.7422C10.2539 34.5599 9.98698 34.3516 9.6875 34.1172C9.38802 33.8828 9.07552 33.6354 8.75 33.375C8.42448 33.1016 8.11198 32.8477 7.8125 32.6133C7.52604 32.3659 7.26562 32.1445 7.03125 31.9492C6.79688 31.7539 6.62109 31.6042 6.50391 31.5C5.73568 30.9271 5.1237 30.3477 4.66797 29.7617C4.22526 29.1758 3.88672 28.5638 3.65234 27.9258C3.41797 27.2878 3.26823 26.6302 3.20312 25.9531C3.13802 25.263 3.10547 24.5339 3.10547 23.7656C3.10547 22.6198 3.37891 21.5326 3.92578 20.5039C4.47266 19.4753 5.24089 18.5833 6.23047 17.8281C7.23307 17.0599 8.43099 16.4544 9.82422 16.0117C11.2174 15.556 12.7669 15.3281 14.4727 15.3281C14.681 15.3281 14.9935 15.3542 15.4102 15.4062C15.8268 15.4453 16.2826 15.5169 16.7773 15.6211C17.2852 15.7253 17.7995 15.8685 18.3203 16.0508C18.8411 16.2331 19.3164 16.4674 19.7461 16.7539C19.8893 16.8581 20 16.9622 20.0781 17.0664C20.1693 17.1706 20.2279 17.3333 20.2539 17.5547C20.319 18.6094 20.3711 19.651 20.4102 20.6797C20.4492 21.6953 20.5013 22.776 20.5664 23.9219C20.5664 24.1432 20.5208 24.293 20.4297 24.3711C20.3385 24.4362 20.2214 24.4688 20.0781 24.4688C19.9349 24.4688 19.8242 24.4297 19.7461 24.3516C19.3685 23.974 18.9779 23.6029 18.5742 23.2383C18.1706 22.8737 17.7474 22.5547 17.3047 22.2812C16.862 21.9948 16.3867 21.7669 15.8789 21.5977C15.3841 21.4284 14.8438 21.3438 14.2578 21.3438C13.9062 21.3438 13.5547 21.3763 13.2031 21.4414C12.8516 21.4935 12.5326 21.5977 12.2461 21.7539C11.9596 21.9102 11.7253 22.125 11.543 22.3984C11.3737 22.6719 11.2891 23.0169 11.2891 23.4336C11.2891 23.8763 11.3411 24.2604 11.4453 24.5859C11.5625 24.9115 11.8424 25.2174 12.2852 25.5039L16.9727 28.6875C17.832 29.2995 18.5286 29.9115 19.0625 30.5234C19.5964 31.1224 20.013 31.7214 20.3125 32.3203C20.612 32.9193 20.8138 33.5117 20.918 34.0977C21.0352 34.6706 21.0938 35.237 21.0938 35.7969C21.0938 36.7083 20.944 37.5677 20.6445 38.375C20.3451 39.1823 19.9349 39.931 19.4141 40.6211C18.8932 41.2982 18.2812 41.9102 17.5781 42.457C16.888 42.9909 16.1458 43.4531 15.3516 43.8438C14.5573 44.2214 13.7305 44.5078 12.8711 44.7031C12.0247 44.9115 11.1914 45.0156 10.3711 45.0156C9.73307 45.0156 9.10156 45.0026 8.47656 44.9766C7.86458 44.9635 7.26562 44.9115 6.67969 44.8203C6.09375 44.7422 5.52734 44.612 4.98047 44.4297C4.43359 44.2604 3.91276 44.0195 3.41797 43.707L3.08594 36.7344ZM44.2773 41.5781C44.2383 42.0078 44.1862 42.3073 44.1211 42.4766C44.056 42.6328 43.9128 42.737 43.6914 42.7891C42.5846 43.1016 41.4258 43.4206 40.2148 43.7461C39.0169 44.0586 37.8516 44.4753 36.7188 44.9961C36.6797 45.0091 36.6211 45.0156 36.543 45.0156C36.4388 45.0156 36.3737 44.9896 36.3477 44.9375C36.3346 44.8854 36.3281 44.8268 36.3281 44.7617C36.3281 44.7357 36.3281 44.6901 36.3281 44.625C36.3411 44.5599 36.3607 44.4362 36.3867 44.2539C36.4128 44.0846 36.4453 43.8438 36.4844 43.5312C36.5365 43.2188 36.6016 42.8021 36.6797 42.2812C35.2214 43.2318 33.9258 43.9219 32.793 44.3516C31.6732 44.7943 30.6771 45.0156 29.8047 45.0156C27.6302 45.0156 26.0417 44.4948 25.0391 43.4531C24.0495 42.3984 23.5547 40.8294 23.5547 38.7461C23.5547 38.3685 23.5612 37.9844 23.5742 37.5938C23.5872 37.1901 23.6263 36.7799 23.6914 36.3633C23.8346 34.8268 23.9583 33.5117 24.0625 32.418C24.1667 31.3112 24.2513 30.3737 24.3164 29.6055C24.3815 28.8372 24.4336 28.2122 24.4727 27.7305C24.5247 27.2357 24.5638 26.8255 24.5898 26.5C24.6289 26.1745 24.6549 25.9076 24.668 25.6992C24.694 25.4779 24.7201 25.263 24.7461 25.0547C24.7982 24.638 24.8438 24.3451 24.8828 24.1758C24.9349 24.0065 25.0846 23.8958 25.332 23.8438C25.944 23.7266 26.5234 23.6224 27.0703 23.5312C27.6302 23.4271 28.1771 23.3229 28.7109 23.2188C29.2578 23.1016 29.8112 22.9779 30.3711 22.8477C30.931 22.7174 31.5234 22.5612 32.1484 22.3789C32.1745 22.3789 32.2005 22.3789 32.2266 22.3789C32.2526 22.3659 32.2786 22.3594 32.3047 22.3594C32.4609 22.3594 32.5391 22.4115 32.5391 22.5156V22.5547C32.487 22.9974 32.4414 23.4141 32.4023 23.8047C32.3633 24.1953 32.3242 24.599 32.2852 25.0156C32.2461 25.4193 32.2005 25.8555 32.1484 26.3242C32.1094 26.793 32.0573 27.3398 31.9922 27.9648C31.9271 28.5768 31.849 29.2865 31.7578 30.0938C31.6667 30.901 31.556 31.8385 31.4258 32.9062C31.3477 33.6875 31.2695 34.4688 31.1914 35.25C31.1133 36.0182 31.0742 36.7344 31.0742 37.3984C31.0742 37.763 31.1003 38.1016 31.1523 38.4141C31.2044 38.7135 31.2956 38.974 31.4258 39.1953C31.569 39.4036 31.7513 39.5664 31.9727 39.6836C32.194 39.8008 32.4805 39.8594 32.832 39.8594C33.1055 39.8594 33.4766 39.8008 33.9453 39.6836C34.4141 39.5534 34.8828 39.3385 35.3516 39.0391C35.8203 38.7266 36.2305 38.3229 36.582 37.8281C36.9466 37.3203 37.1549 36.6823 37.207 35.9141C37.2982 34.625 37.3763 33.5508 37.4414 32.6914C37.5195 31.819 37.5846 31.0898 37.6367 30.5039C37.6888 29.9049 37.7344 29.4036 37.7734 29C37.8125 28.5964 37.8451 28.2122 37.8711 27.8477C37.9102 27.4701 37.9427 27.0729 37.9688 26.6562C37.9948 26.2266 38.0208 25.6927 38.0469 25.0547C38.0859 24.625 38.1315 24.332 38.1836 24.1758C38.2487 24.0065 38.3984 23.8958 38.6328 23.8438C39.8177 23.6094 41.0286 23.375 42.2656 23.1406C43.5026 22.8932 44.7135 22.5807 45.8984 22.2031C46.0026 22.2031 46.0612 22.2227 46.0742 22.2617C46.1003 22.2878 46.1133 22.3333 46.1133 22.3984L44.2773 41.5781ZM57.3633 30.3672C57.2852 31.6172 57.2135 32.6328 57.1484 33.4141C57.0964 34.1953 57.0508 34.8333 57.0117 35.3281C56.9727 35.8099 56.9401 36.194 56.9141 36.4805C56.888 36.7539 56.8685 37.0143 56.8555 37.2617C57.1549 38.043 57.5977 38.681 58.1836 39.1758C58.7695 39.6576 59.4727 39.8984 60.293 39.8984C61.0091 39.8984 61.6341 39.6771 62.168 39.2344C62.7148 38.7786 63.1641 38.1927 63.5156 37.4766C63.8802 36.7604 64.1536 35.9596 64.3359 35.0742C64.5182 34.1888 64.6094 33.3099 64.6094 32.4375C64.6094 31.7214 64.5443 31.0573 64.4141 30.4453C64.2969 29.8333 64.1146 29.306 63.8672 28.8633C63.6198 28.4076 63.3073 28.056 62.9297 27.8086C62.5651 27.5482 62.1289 27.418 61.6211 27.418C61.2044 27.418 60.7878 27.5026 60.3711 27.6719C59.9674 27.8281 59.5768 28.0365 59.1992 28.2969C58.8216 28.5443 58.4766 28.8307 58.1641 29.1562C57.8646 29.4688 57.6172 29.7747 57.4219 30.0742L57.3633 30.3672ZM57.7539 24.6445C58.8477 23.9023 59.9935 23.3099 61.1914 22.8672C62.3893 22.4245 63.6393 22.2031 64.9414 22.2031C66.1654 22.2031 67.2201 22.457 68.1055 22.9648C69.0039 23.4596 69.7461 24.1367 70.332 24.9961C70.918 25.8424 71.3477 26.819 71.6211 27.9258C71.9076 29.0326 72.0508 30.1914 72.0508 31.4023C72.0508 32.457 71.9466 33.5247 71.7383 34.6055C71.5299 35.6862 71.224 36.7344 70.8203 37.75C70.4167 38.7526 69.9154 39.6966 69.3164 40.582C68.7174 41.4674 68.0273 42.2422 67.2461 42.9062C66.4779 43.5573 65.6185 44.0716 64.668 44.4492C63.7174 44.8268 62.6888 45.0156 61.582 45.0156C60.6055 45.0156 59.668 44.8203 58.7695 44.4297C57.8841 44.0391 57.0508 43.5312 56.2695 42.9062C56.2695 42.9714 56.25 43.2122 56.2109 43.6289C56.1849 44.0326 56.1458 44.5273 56.0938 45.1133C56.0417 45.6992 55.9831 46.3242 55.918 46.9883C55.8529 47.6654 55.7943 48.2969 55.7422 48.8828C55.6901 49.4688 55.6445 49.9635 55.6055 50.3672C55.5794 50.7839 55.5664 51.0247 55.5664 51.0898C55.5664 51.194 55.5664 51.2786 55.5664 51.3438C55.5794 51.4219 55.5859 51.4935 55.5859 51.5586C55.5859 51.6628 55.5339 51.7474 55.4297 51.8125C55.3385 51.8906 55.1237 51.9753 54.7852 52.0664L49.6484 53.375C49.5052 53.4141 49.3164 53.4727 49.082 53.5508C48.8477 53.6419 48.6198 53.6875 48.3984 53.6875C48.2161 53.6875 48.0534 53.6419 47.9102 53.5508C47.7799 53.4596 47.7148 53.2904 47.7148 53.043L50.0977 24.4492C50.1367 24.0195 50.1823 23.7266 50.2344 23.5703C50.2995 23.401 50.4492 23.2904 50.6836 23.2383C51.8685 23.0039 53.0859 22.7695 54.3359 22.5352C55.5859 22.2878 56.8034 21.9753 57.9883 21.5977C58.0924 21.5977 58.151 21.6172 58.1641 21.6562C58.1901 21.6823 58.2031 21.7279 58.2031 21.793C58.2031 21.819 58.1966 21.8581 58.1836 21.9102C58.1836 21.9622 58.1641 22.0794 58.125 22.2617C58.099 22.444 58.0534 22.724 57.9883 23.1016C57.9362 23.4661 57.8581 23.9805 57.7539 24.6445ZM86.1719 22.2031C87.4089 22.2031 88.5286 22.4375 89.5312 22.9062C90.5469 23.362 91.4128 23.9609 92.1289 24.7031C92.8581 25.4323 93.418 26.2526 93.8086 27.1641C94.1992 28.0755 94.3945 28.987 94.3945 29.8984C94.3945 30.7057 94.1471 31.5195 93.6523 32.3398C93.1576 33.1471 92.4609 33.8763 91.5625 34.5273C90.6771 35.1784 89.6094 35.7057 88.3594 36.1094C87.1094 36.513 85.7357 36.7148 84.2383 36.7148C83.457 36.7148 82.6367 36.6367 81.7773 36.4805C81.8294 37.0404 81.9922 37.5221 82.2656 37.9258C82.5391 38.3294 82.8841 38.6615 83.3008 38.9219C83.7174 39.1823 84.1862 39.3776 84.707 39.5078C85.2409 39.625 85.7878 39.6836 86.3477 39.6836C86.9727 39.6836 87.5716 39.6315 88.1445 39.5273C88.7305 39.4102 89.2904 39.2604 89.8242 39.0781C90.3581 38.8958 90.8724 38.694 91.3672 38.4727C91.862 38.2513 92.3307 38.0299 92.7734 37.8086C92.8906 37.7826 92.9883 37.763 93.0664 37.75C93.1576 37.724 93.2422 37.7109 93.3203 37.7109C93.3203 37.7109 93.3138 37.8151 93.3008 38.0234C93.3008 38.2318 93.3008 38.5247 93.3008 38.9023C93.3008 39.2799 93.2943 39.7357 93.2812 40.2695C93.2812 40.8034 93.2747 41.3958 93.2617 42.0469C93.3008 42.112 93.3268 42.1771 93.3398 42.2422C93.3529 42.3073 93.3594 42.3594 93.3594 42.3984C93.3594 42.5547 93.2161 42.724 92.9297 42.9062C92.6432 43.0885 92.2656 43.2773 91.7969 43.4727C91.3411 43.668 90.8138 43.8568 90.2148 44.0391C89.6289 44.2214 89.0299 44.3841 88.418 44.5273C87.806 44.6836 87.2135 44.8008 86.6406 44.8789C86.0677 44.9701 85.5664 45.0156 85.1367 45.0156C83.7305 45.0156 82.3633 44.7682 81.0352 44.2734C79.7201 43.7917 78.5482 43.0951 77.5195 42.1836C76.5039 41.2721 75.6901 40.1654 75.0781 38.8633C74.4661 37.5612 74.1602 36.0964 74.1602 34.4688C74.1602 32.763 74.4531 31.168 75.0391 29.6836C75.625 28.1862 76.4453 26.8841 77.5 25.7773C78.5677 24.6706 79.8372 23.7982 81.3086 23.1602C82.7799 22.5221 84.401 22.2031 86.1719 22.2031ZM85.9375 27.3984C85.4036 27.3984 84.9089 27.5156 84.4531 27.75C84.0104 27.9714 83.6003 28.2969 83.2227 28.7266C82.8581 29.1432 82.5391 29.651 82.2656 30.25C81.9922 30.8359 81.7708 31.487 81.6016 32.2031C82.9427 31.9688 84.056 31.7214 84.9414 31.4609C85.8268 31.2005 86.5365 30.9401 87.0703 30.6797C87.6042 30.4062 87.9818 30.1393 88.2031 29.8789C88.4245 29.6055 88.5352 29.3451 88.5352 29.0977C88.5352 28.8633 88.444 28.6419 88.2617 28.4336C88.0924 28.2253 87.8776 28.043 87.6172 27.8867C87.3568 27.7305 87.0703 27.6133 86.7578 27.5352C86.4583 27.444 86.1849 27.3984 85.9375 27.3984ZM112.812 28.1016C112.539 28.0755 112.233 28.0495 111.895 28.0234C111.556 27.9844 111.198 27.9648 110.82 27.9648C110.247 27.9648 109.661 28.0169 109.062 28.1211C108.477 28.2122 107.93 28.401 107.422 28.6875C106.914 28.974 106.478 29.3711 106.113 29.8789C105.749 30.3737 105.514 31.0182 105.41 31.8125C105.319 32.776 105.241 33.5703 105.176 34.1953C105.124 34.8073 105.085 35.3151 105.059 35.7188C105.033 36.1094 105.007 36.4284 104.98 36.6758C104.967 36.9102 104.954 37.1315 104.941 37.3398C104.941 37.3919 104.928 37.5352 104.902 37.7695C104.889 38.0039 104.863 38.2773 104.824 38.5898C104.785 38.9023 104.746 39.2409 104.707 39.6055C104.681 39.9701 104.648 40.3086 104.609 40.6211C104.57 40.9336 104.538 41.207 104.512 41.4414C104.499 41.6758 104.492 41.819 104.492 41.8711C104.492 41.9753 104.492 42.0664 104.492 42.1445C104.505 42.2096 104.512 42.2747 104.512 42.3398C104.512 42.444 104.46 42.5352 104.355 42.6133C104.264 42.6784 104.049 42.7565 103.711 42.8477L98.5352 44.7031C98.3919 44.7552 98.2031 44.8203 97.9688 44.8984C97.7344 44.9766 97.5065 45.0156 97.2852 45.0156C97.1029 45.0156 96.9401 44.9701 96.7969 44.8789C96.6667 44.7878 96.6016 44.6315 96.6016 44.4102L98.2812 25.0547C98.3203 24.625 98.3659 24.332 98.418 24.1758C98.4831 24.0065 98.6328 23.8958 98.8672 23.8438C100.052 23.6094 101.276 23.375 102.539 23.1406C103.802 22.8932 105.026 22.5807 106.211 22.2031C106.315 22.2031 106.374 22.2227 106.387 22.2617C106.413 22.2878 106.426 22.3333 106.426 22.3984C106.426 22.4245 106.419 22.4635 106.406 22.5156C106.406 22.5677 106.387 22.6849 106.348 22.8672C106.322 23.0495 106.276 23.3294 106.211 23.707C106.159 24.0716 106.081 24.5859 105.977 25.25C106.576 24.7812 107.233 24.3516 107.949 23.9609C108.678 23.5703 109.408 23.2383 110.137 22.9648C110.866 22.6784 111.569 22.457 112.246 22.3008C112.923 22.1315 113.516 22.0469 114.023 22.0469L112.812 28.1016Z" fill="#56721E"/>
<path d="M115.234 36.7344C115.234 36.7214 115.228 36.7083 115.215 36.6953C115.215 36.6823 115.215 36.6693 115.215 36.6562C115.215 36.4349 115.332 36.3242 115.566 36.3242C115.684 36.3242 115.814 36.3828 115.957 36.5C116.66 37.1641 117.441 37.6914 118.301 38.082C119.16 38.4727 120.098 38.668 121.113 38.668C121.387 38.668 121.699 38.6419 122.051 38.5898C122.402 38.5247 122.734 38.4271 123.047 38.2969C123.359 38.1536 123.62 37.9714 123.828 37.75C124.049 37.5286 124.16 37.2487 124.16 36.9102C124.16 36.5326 124.069 36.194 123.887 35.8945C123.704 35.5951 123.464 35.3411 123.164 35.1328C123.047 35.0547 122.871 34.9245 122.637 34.7422C122.402 34.5599 122.135 34.3516 121.836 34.1172C121.536 33.8828 121.224 33.6354 120.898 33.375C120.573 33.1016 120.26 32.8477 119.961 32.6133C119.674 32.3659 119.414 32.1445 119.18 31.9492C118.945 31.7539 118.77 31.6042 118.652 31.5C117.884 30.9271 117.272 30.3477 116.816 29.7617C116.374 29.1758 116.035 28.5638 115.801 27.9258C115.566 27.2878 115.417 26.6302 115.352 25.9531C115.286 25.263 115.254 24.5339 115.254 23.7656C115.254 22.6198 115.527 21.5326 116.074 20.5039C116.621 19.4753 117.389 18.5833 118.379 17.8281C119.382 17.0599 120.579 16.4544 121.973 16.0117C123.366 15.556 124.915 15.3281 126.621 15.3281C126.829 15.3281 127.142 15.3542 127.559 15.4062C127.975 15.4453 128.431 15.5169 128.926 15.6211C129.434 15.7253 129.948 15.8685 130.469 16.0508C130.99 16.2331 131.465 16.4674 131.895 16.7539C132.038 16.8581 132.148 16.9622 132.227 17.0664C132.318 17.1706 132.376 17.3333 132.402 17.5547C132.467 18.6094 132.52 19.651 132.559 20.6797C132.598 21.6953 132.65 22.776 132.715 23.9219C132.715 24.1432 132.669 24.293 132.578 24.3711C132.487 24.4362 132.37 24.4688 132.227 24.4688C132.083 24.4688 131.973 24.4297 131.895 24.3516C131.517 23.974 131.126 23.6029 130.723 23.2383C130.319 22.8737 129.896 22.5547 129.453 22.2812C129.01 21.9948 128.535 21.7669 128.027 21.5977C127.533 21.4284 126.992 21.3438 126.406 21.3438C126.055 21.3438 125.703 21.3763 125.352 21.4414C125 21.4935 124.681 21.5977 124.395 21.7539C124.108 21.9102 123.874 22.125 123.691 22.3984C123.522 22.6719 123.438 23.0169 123.438 23.4336C123.438 23.8763 123.49 24.2604 123.594 24.5859C123.711 24.9115 123.991 25.2174 124.434 25.5039L129.121 28.6875C129.98 29.2995 130.677 29.9115 131.211 30.5234C131.745 31.1224 132.161 31.7214 132.461 32.3203C132.76 32.9193 132.962 33.5117 133.066 34.0977C133.184 34.6706 133.242 35.237 133.242 35.7969C133.242 36.7083 133.092 37.5677 132.793 38.375C132.493 39.1823 132.083 39.931 131.562 40.6211C131.042 41.2982 130.43 41.9102 129.727 42.457C129.036 42.9909 128.294 43.4531 127.5 43.8438C126.706 44.2214 125.879 44.5078 125.02 44.7031C124.173 44.9115 123.34 45.0156 122.52 45.0156C121.882 45.0156 121.25 45.0026 120.625 44.9766C120.013 44.9635 119.414 44.9115 118.828 44.8203C118.242 44.7422 117.676 44.612 117.129 44.4297C116.582 44.2604 116.061 44.0195 115.566 43.707L115.234 36.7344ZM156.426 41.5781C156.387 42.0078 156.335 42.3073 156.27 42.4766C156.204 42.6328 156.061 42.737 155.84 42.7891C154.733 43.1016 153.574 43.4206 152.363 43.7461C151.165 44.0586 150 44.4753 148.867 44.9961C148.828 45.0091 148.77 45.0156 148.691 45.0156C148.587 45.0156 148.522 44.9896 148.496 44.9375C148.483 44.8854 148.477 44.8268 148.477 44.7617C148.477 44.7357 148.477 44.6901 148.477 44.625C148.49 44.5599 148.509 44.4362 148.535 44.2539C148.561 44.0846 148.594 43.8438 148.633 43.5312C148.685 43.2188 148.75 42.8021 148.828 42.2812C147.37 43.2318 146.074 43.9219 144.941 44.3516C143.822 44.7943 142.826 45.0156 141.953 45.0156C139.779 45.0156 138.19 44.4948 137.188 43.4531C136.198 42.3984 135.703 40.8294 135.703 38.7461C135.703 38.3685 135.71 37.9844 135.723 37.5938C135.736 37.1901 135.775 36.7799 135.84 36.3633C135.983 34.8268 136.107 33.5117 136.211 32.418C136.315 31.3112 136.4 30.3737 136.465 29.6055C136.53 28.8372 136.582 28.2122 136.621 27.7305C136.673 27.2357 136.712 26.8255 136.738 26.5C136.777 26.1745 136.803 25.9076 136.816 25.6992C136.842 25.4779 136.868 25.263 136.895 25.0547C136.947 24.638 136.992 24.3451 137.031 24.1758C137.083 24.0065 137.233 23.8958 137.48 23.8438C138.092 23.7266 138.672 23.6224 139.219 23.5312C139.779 23.4271 140.326 23.3229 140.859 23.2188C141.406 23.1016 141.96 22.9779 142.52 22.8477C143.079 22.7174 143.672 22.5612 144.297 22.3789C144.323 22.3789 144.349 22.3789 144.375 22.3789C144.401 22.3659 144.427 22.3594 144.453 22.3594C144.609 22.3594 144.688 22.4115 144.688 22.5156V22.5547C144.635 22.9974 144.59 23.4141 144.551 23.8047C144.512 24.1953 144.473 24.599 144.434 25.0156C144.395 25.4193 144.349 25.8555 144.297 26.3242C144.258 26.793 144.206 27.3398 144.141 27.9648C144.076 28.5768 143.997 29.2865 143.906 30.0938C143.815 30.901 143.704 31.8385 143.574 32.9062C143.496 33.6875 143.418 34.4688 143.34 35.25C143.262 36.0182 143.223 36.7344 143.223 37.3984C143.223 37.763 143.249 38.1016 143.301 38.4141C143.353 38.7135 143.444 38.974 143.574 39.1953C143.717 39.4036 143.9 39.5664 144.121 39.6836C144.342 39.8008 144.629 39.8594 144.98 39.8594C145.254 39.8594 145.625 39.8008 146.094 39.6836C146.562 39.5534 147.031 39.3385 147.5 39.0391C147.969 38.7266 148.379 38.3229 148.73 37.8281C149.095 37.3203 149.303 36.6823 149.355 35.9141C149.447 34.625 149.525 33.5508 149.59 32.6914C149.668 31.819 149.733 31.0898 149.785 30.5039C149.837 29.9049 149.883 29.4036 149.922 29C149.961 28.5964 149.993 28.2122 150.02 27.8477C150.059 27.4701 150.091 27.0729 150.117 26.6562C150.143 26.2266 150.169 25.6927 150.195 25.0547C150.234 24.625 150.28 24.332 150.332 24.1758C150.397 24.0065 150.547 23.8958 150.781 23.8438C151.966 23.6094 153.177 23.375 154.414 23.1406C155.651 22.8932 156.862 22.5807 158.047 22.2031C158.151 22.2031 158.21 22.2227 158.223 22.2617C158.249 22.2878 158.262 22.3333 158.262 22.3984L156.426 41.5781ZM169.023 37.6328C169.154 37.8932 169.336 38.1602 169.57 38.4336C169.818 38.694 170.098 38.9349 170.41 39.1562C170.736 39.3776 171.087 39.5599 171.465 39.7031C171.842 39.8333 172.233 39.8984 172.637 39.8984C173.197 39.8984 173.724 39.6836 174.219 39.2539C174.714 38.8112 175.143 38.2253 175.508 37.4961C175.885 36.7539 176.178 35.9141 176.387 34.9766C176.595 34.026 176.699 33.043 176.699 32.0273C176.699 31.4023 176.641 30.8099 176.523 30.25C176.419 29.6901 176.25 29.2018 176.016 28.7852C175.781 28.3685 175.475 28.0365 175.098 27.7891C174.733 27.5417 174.29 27.418 173.77 27.418C172.923 27.418 172.148 27.6654 171.445 28.1602C170.742 28.6549 170.15 29.2865 169.668 30.0547L169.023 37.6328ZM161.758 44.957C161.576 44.9961 161.432 45.0156 161.328 45.0156C160.911 45.0156 160.703 44.7682 160.703 44.2734C160.703 44.2083 160.703 44.1432 160.703 44.0781C160.716 44.013 160.729 43.9414 160.742 43.8633L163.008 16.2266C163.008 16.1875 163.008 16.1484 163.008 16.1094C163.021 16.0703 163.027 16.0378 163.027 16.0117C163.027 15.9596 163.021 15.9141 163.008 15.875C163.008 15.8359 163.008 15.8034 163.008 15.7773C163.008 15.6602 163.047 15.569 163.125 15.5039C163.216 15.4258 163.438 15.3411 163.789 15.25L169.277 13.9414C169.421 13.9154 169.609 13.8568 169.844 13.7656C170.078 13.6745 170.306 13.6289 170.527 13.6289C170.697 13.6289 170.853 13.668 170.996 13.7461C171.152 13.8242 171.23 13.974 171.23 14.1953C171.23 14.2214 171.224 14.2474 171.211 14.2734C171.211 14.2995 171.211 14.3255 171.211 14.3516C171.198 14.4167 171.165 14.7031 171.113 15.2109C171.061 15.7188 171.003 16.3372 170.938 17.0664C170.872 17.7826 170.801 18.5573 170.723 19.3906C170.645 20.2109 170.573 20.9857 170.508 21.7148C170.443 22.431 170.384 23.043 170.332 23.5508C170.28 24.0586 170.247 24.3451 170.234 24.4102C171.185 23.7852 172.168 23.2643 173.184 22.8477C174.199 22.418 175.215 22.2031 176.23 22.2031C177.572 22.2031 178.73 22.4831 179.707 23.043C180.684 23.5898 181.491 24.3255 182.129 25.25C182.767 26.1615 183.236 27.2161 183.535 28.4141C183.848 29.612 184.004 30.849 184.004 32.125C184.004 33.1536 183.906 34.1888 183.711 35.2305C183.529 36.2591 183.255 37.2487 182.891 38.1992C182.539 39.1497 182.09 40.0417 181.543 40.875C181.009 41.7083 180.391 42.431 179.688 43.043C178.997 43.6549 178.223 44.1367 177.363 44.4883C176.504 44.8398 175.573 45.0156 174.57 45.0156C173.359 45.0156 172.253 44.7487 171.25 44.2148C170.247 43.681 169.316 42.9909 168.457 42.1445C168.431 42.457 168.411 42.7044 168.398 42.8867C168.385 43.069 168.34 43.2122 168.262 43.3164C168.197 43.4076 168.092 43.4857 167.949 43.5508C167.806 43.6029 167.591 43.6615 167.305 43.7266C167.161 43.7656 166.908 43.8307 166.543 43.9219C166.191 44 165.762 44.0911 165.254 44.1953C164.759 44.3125 164.206 44.4362 163.594 44.5664C162.995 44.6966 162.383 44.8268 161.758 44.957ZM186.66 38.6094C186.66 38.5964 186.654 38.5898 186.641 38.5898C186.641 38.5768 186.641 38.5638 186.641 38.5508C186.641 38.3815 186.732 38.2969 186.914 38.2969C187.031 38.2969 187.135 38.3424 187.227 38.4336C187.747 38.9284 188.34 39.332 189.004 39.6445C189.681 39.957 190.41 40.1133 191.191 40.1133C191.4 40.1133 191.641 40.0938 191.914 40.0547C192.188 40.0026 192.448 39.9245 192.695 39.8203C192.943 39.7161 193.145 39.5794 193.301 39.4102C193.47 39.2279 193.555 39.0065 193.555 38.7461C193.555 38.4596 193.483 38.1992 193.34 37.9648C193.197 37.7174 193.008 37.5156 192.773 37.3594C192.643 37.2682 192.415 37.112 192.09 36.8906C191.764 36.6562 191.413 36.4089 191.035 36.1484C190.671 35.888 190.319 35.6406 189.98 35.4062C189.655 35.1719 189.427 35.0026 189.297 34.8984C188.711 34.4557 188.242 34.0065 187.891 33.5508C187.552 33.0951 187.292 32.6263 187.109 32.1445C186.927 31.6497 186.81 31.1354 186.758 30.6016C186.706 30.0677 186.68 29.5013 186.68 28.9023C186.68 27.9909 186.921 27.1315 187.402 26.3242C187.884 25.5169 188.516 24.8073 189.297 24.1953C190.091 23.5833 190.99 23.1016 191.992 22.75C192.995 22.3854 194.017 22.2031 195.059 22.2031C195.918 22.2031 196.764 22.3333 197.598 22.5938C198.431 22.8542 199.206 23.2969 199.922 23.9219C199.987 24.7422 200.033 25.5495 200.059 26.3438C200.085 27.138 200.124 27.9714 200.176 28.8438C200.176 29.013 200.137 29.1302 200.059 29.1953C199.98 29.2474 199.889 29.2734 199.785 29.2734C199.694 29.2734 199.616 29.2409 199.551 29.1758C199.251 28.8893 198.945 28.6094 198.633 28.3359C198.32 28.0495 197.988 27.8021 197.637 27.5938C197.298 27.3724 196.934 27.1966 196.543 27.0664C196.152 26.9232 195.736 26.8516 195.293 26.8516C195.02 26.8516 194.746 26.8776 194.473 26.9297C194.199 26.9688 193.952 27.0534 193.73 27.1836C193.509 27.3008 193.327 27.4635 193.184 27.6719C193.053 27.8802 192.988 28.1471 192.988 28.4727C192.988 28.8503 193.034 29.1758 193.125 29.4492C193.216 29.7227 193.431 29.9896 193.77 30.25L197.402 32.7109C198.066 33.1667 198.6 33.6159 199.004 34.0586C199.421 34.4883 199.746 34.918 199.98 35.3477C200.215 35.7773 200.371 36.207 200.449 36.6367C200.54 37.0534 200.586 37.4701 200.586 37.8867C200.586 39.0586 200.312 40.0938 199.766 40.9922C199.232 41.8776 198.535 42.6198 197.676 43.2188C196.816 43.8047 195.84 44.2474 194.746 44.5469C193.665 44.8594 192.578 45.0156 191.484 45.0156C190.651 45.0156 189.844 44.9245 189.062 44.7422C188.294 44.5729 187.578 44.306 186.914 43.9414L186.66 38.6094Z" fill="#CA1B01"/>
<line y1="52" x2="44" y2="52" stroke="#02643F" stroke-width="4"/>
<path d="M226 52L206 40.453V63.547L226 52ZM59 54H208V50H59V54Z" fill="#02643F"/>
</svg>
